<svg width="12" height="21" viewBox="0 0 12 21" fill="none" xmlns="http://www.w3.org/2000/svg">
<path d="M11.3125 1.11447C11.1916 0.993211 11.0479 0.897006 10.8897 0.831364C10.7315 0.765722 10.5619 0.731934 10.3906 0.731934C10.2194 0.731934 10.0498 0.765722 9.89158 0.831364C9.73339 0.897006 9.58971 0.993211 9.46875 1.11447L0.812503 9.77072C0.715937 9.86709 0.639325 9.98156 0.587052 10.1076C0.53478 10.2336 0.507874 10.3687 0.507874 10.5051C0.507874 10.6415 0.53478 10.7766 0.587052 10.9026C0.639325 11.0286 0.715937 11.1431 0.812503 11.2395L9.46875 19.8957C9.97917 20.4061 10.8021 20.4061 11.3125 19.8957C11.8229 19.3853 11.8229 18.5624 11.3125 18.052L3.77084 10.4999L11.3229 2.9478C11.8229 2.4478 11.8229 1.61447 11.3125 1.11447Z" fill="#666666"/>
</svg>
