<svg width="12" height="21" viewBox="0 0 12 21" fill="none" xmlns="http://www.w3.org/2000/svg">
<path d="M0.687494 19.8855C0.808446 20.0068 0.952133 20.103 1.11032 20.1686C1.26851 20.2343 1.4381 20.2681 1.60937 20.2681C1.78064 20.2681 1.95023 20.2343 2.10842 20.1686C2.26661 20.103 2.41029 20.0068 2.53125 19.8855L11.1875 11.2293C11.2841 11.1329 11.3607 11.0184 11.4129 10.8924C11.4652 10.7664 11.4921 10.6313 11.4921 10.4949C11.4921 10.3585 11.4652 10.2234 11.4129 10.0974C11.3607 9.97136 11.2841 9.8569 11.1875 9.76053L2.53125 1.10427C2.02083 0.593859 1.19791 0.593859 0.687494 1.10427C0.177077 1.61469 0.177077 2.43761 0.687494 2.94803L8.22916 10.5001L0.677079 18.0522C0.177079 18.5522 0.177077 19.3855 0.687494 19.8855Z" fill="black"/>
</svg>
